HIERARCHY
ROOT Hips
{
	OFFSET 0.00000 0.00000 0.00000
	CHANNELS 6 Xposition Yposition Zposition Zrotation Yrotation Xrotation 
	JOINT LHipJoint
	{
		OFFSET 0 0 0
		CHANNELS 3 Zrotation Yrotation Xrotation
		JOINT LeftUpLeg
		{
			OFFSET 1.86795 -1.59681 0.65681
			CHANNELS 3 Zrotation Yrotation Xrotation
			JOINT LeftLeg
			{
				OFFSET 2.30491 -6.33268 0.00000
				CHANNELS 3 Zrotation Yrotation Xrotation
				JOINT LeftFoot
				{
					OFFSET 2.46780 -6.78022 0.00000
					CHANNELS 3 Zrotation Yrotation Xrotation
					JOINT LeftToeBase
					{
						OFFSET 0.07897 -0.21698 1.59652
						CHANNELS 3 Zrotation Yrotation Xrotation
						End Site
						{
							OFFSET 0.00000 -0.00000 0.82310
						}
					}
				}
			}
		}
	}
	JOINT RHipJoint
	{
		OFFSET 0 0 0
		CHANNELS 3 Zrotation Yrotation Xrotation
		JOINT RightUpLeg
		{
			OFFSET -1.93650 -1.59681 0.65681
			CHANNELS 3 Zrotation Yrotation Xrotation
			JOINT RightLeg
			{
				OFFSET -2.29410 -6.30299 0.00000
				CHANNELS 3 Zrotation Yrotation Xrotation
				JOINT RightFoot
				{
					OFFSET -2.48738 -6.83403 0.00000
					CHANNELS 3 Zrotation Yrotation Xrotation
					JOINT RightToeBase
					{
						OFFSET -0.08699 -0.23899 1.89395
						CHANNELS 3 Zrotation Yrotation Xrotation
						End Site
						{
							OFFSET -0.00000 -0.00000 0.96904
						}
					}
				}
			}
		}
	}
	JOINT LowerBack
	{
		OFFSET 0 0 0
		CHANNELS 3 Zrotation Yrotation Xrotation
		JOINT Spine
		{
			OFFSET 0.03629 1.99740 -0.07548
			CHANNELS 3 Zrotation Yrotation Xrotation
			JOINT Spine1
			{
				OFFSET 0.03970 1.94298 0.17218
				CHANNELS 3 Zrotation Yrotation Xrotation
				JOINT Neck
				{
					OFFSET 0 0 0
					CHANNELS 3 Zrotation Yrotation Xrotation
					JOINT Neck1
					{
						OFFSET -0.05054 1.79469 0.04241
						CHANNELS 3 Zrotation Yrotation Xrotation
						JOINT Head
						{
							OFFSET 0.05195 1.78475 -0.22133
							CHANNELS 3 Zrotation Yrotation Xrotation
							End Site
							{
								OFFSET 0.02420 1.80711 -0.07950
							}
						}
					}
				}
				JOINT LeftShoulder
				{
					OFFSET 0 0 0
					CHANNELS 3 Zrotation Yrotation Xrotation
					JOINT LeftArm
					{
						OFFSET 2.92134 1.19850 0.36056
						CHANNELS 3 Zrotation Yrotation Xrotation
						JOINT LeftForeArm
						{
							OFFSET 4.84137 -0.00000 0.00000
							CHANNELS 3 Zrotation Yrotation Xrotation
							JOINT LeftHand
							{
								OFFSET 3.24520 -0.00000 -0.00000
								CHANNELS 3 Zrotation Yrotation Xrotation
								JOINT LeftFingerBase
								{
									OFFSET 0 0 0
									CHANNELS 3 Zrotation Yrotation Xrotation
									JOINT LeftHandIndex1
									{
										OFFSET 0.52122 -0.00000 0.00000
										CHANNELS 3 Zrotation Yrotation Xrotation
										End Site
										{
											OFFSET 0.42022 -0.00000 0.00000
										}
									}
								}
								JOINT LThumb
								{
									OFFSET 0 0 0
									CHANNELS 3 Zrotation Yrotation Xrotation
									End Site
									{
										OFFSET 0.42664 -0.00000 0.42664
									}
								}
							}
						}
					}
				}
				JOINT RightShoulder
				{
					OFFSET 0 0 0
					CHANNELS 3 Zrotation Yrotation Xrotation
					JOINT RightArm
					{
						OFFSET -2.84327 1.20795 0.50191
						CHANNELS 3 Zrotation Yrotation Xrotation
						JOINT RightForeArm
						{
							OFFSET -4.72284 -0.00000 0.00000
							CHANNELS 3 Zrotation Yrotation Xrotation
							JOINT RightHand
							{
								OFFSET -3.23459 -0.00000 0.00000
								CHANNELS 3 Zrotation Yrotation Xrotation
								JOINT RightFingerBase
								{
									OFFSET 0 0 0
									CHANNELS 3 Zrotation Yrotation Xrotation
									JOINT RightHandIndex1
									{
										OFFSET -0.30742 -0.00000 0.00000
										CHANNELS 3 Zrotation Yrotation Xrotation
										End Site
										{
											OFFSET -0.24785 -0.00000 0.00000
										}
									}
								}
								JOINT RThumb
								{
									OFFSET 0 0 0
									CHANNELS 3 Zrotation Yrotation Xrotation
									End Site
									{
										OFFSET -0.25163 -0.00000 0.25163
									}
								}
							}
						}
					}
				}
			}
		}
	}
}
MOTION
Frames: 11
Frame Time: .0083333
21.3002 16.4956 -7.2916 -179.1830 -4.0150 -169.7470 0.0000 0.0000 0.0000 -26.8613 -12.2064 -17.6089 2.0285 8.9252 25.5615 -0.0677 14.7598 -20.2153 0.7158 5.4068 15.0725 0.0000 0.0000 0.0000 17.9039 9.7185 -30.8865 -4.2367 -12.4688 37.4114 0.9691 -24.0465 -27.0588 -2.7743 -10.3204 30.0207 0.2050 -0.4963 3.8071 -0.2136 -0.8542 3.7940 -0.3177 -0.5041 1.7540 -1.0189 6.4334 -5.1003 -6.3369 7.5539 -10.0758 -1.8410 3.6254 -2.1007 -0.0000 0.0000 0.0000 -90.5353 -21.3645 48.3674 11.6510 -19.2792 -1.9856 -0.0000 -0.0000 10.3300 2.1880 42.8038 1.4871 -7.1250 0.0000 -0.0000 -47.4037 66.9526 -27.5080 -0.0000 0.0000 0.0000 81.6517 19.3827 34.8637 -7.9977 13.5491 -0.9516 0.0000 -0.0000 -29.9556 -30.8051 28.8147 -16.0333 7.1250 -0.0000 -0.0000 -0.0656 2.6577 -0.0685
21.3014 16.5078 -7.3839 -179.1790 -4.9031 -169.5580 0.0000 0.0000 0.0000 -26.8555 -12.2596 -17.1785 1.9447 8.7499 25.0162 -0.2291 15.2605 -19.0819 0.2553 3.2510 8.9784 0.0000 0.0000 0.0000 17.3466 11.6711 -30.1351 -3.7474 -11.8164 35.0856 0.7347 -24.2737 -29.3151 -3.0897 -10.8388 31.7382 0.4308 -0.4571 3.6083 -0.0338 -0.7867 3.7095 -0.2628 -0.4622 1.7783 -0.7312 6.5219 -4.9910 -6.6748 7.6532 -10.0408 -1.9996 3.6764 -2.0809 -0.0000 -0.0000 0.0000 -90.5991 -21.0794 48.6229 11.7423 -19.4170 -2.0158 -0.0000 -0.0000 10.5178 1.1238 42.6475 0.7614 -7.1250 0.0000 -0.0000 -48.1196 66.5256 -27.5584 -0.0000 -0.0000 0.0000 81.3238 19.3477 34.4736 -7.9244 13.4303 -0.9345 0.0000 -0.0000 -29.8040 -30.6946 28.9789 -16.0455 7.1250 -0.0000 -0.0000 0.0291 2.8042 0.0304
21.2974 16.5191 -7.4813 -179.2780 -5.6883 -169.6830 0.0000 0.0000 0.0000 -27.0427 -12.0369 -16.3726 1.8598 8.5678 24.4526 -0.2098 14.9734 -18.8582 0.1659 2.6241 7.2338 0.0000 0.0000 0.0000 16.7137 13.3335 -29.0994 -3.2898 -11.1501 32.7877 0.6968 -24.7812 -30.4349 -3.1253 -10.8952 31.9274 0.5479 -0.4037 3.6683 0.1392 -0.7200 3.7714 -0.1523 -0.4305 1.8100 -0.6818 6.6242 -5.1459 -6.8327 7.7918 -9.9315 -2.0478 3.7428 -2.0058 0.0000 0.0000 0.0000 -90.6697 -20.8804 49.3204 11.8299 -19.5490 -2.0450 -0.0000 -0.0000 9.6851 1.2746 43.0064 0.8694 -7.1250 0.0000 -0.0000 -48.6089 66.8078 -28.1900 0.0000 0.0000 0.0000 81.0734 19.4337 33.6494 -7.8363 13.2872 -0.9141 0.0000 -0.0000 -29.2274 -30.5820 29.3757 -16.1665 7.1250 -0.0000 -0.0000 0.1689 3.1993 0.1781
21.2896 16.5279 -7.5844 -179.3910 -6.6118 -169.7880 0.0000 0.0000 0.0000 -27.2386 -11.8302 -15.4657 1.7583 8.3435 23.7623 -0.0829 14.1205 -19.0952 0.2351 3.1206 8.6146 0.0000 0.0000 0.0000 16.0597 14.7805 -28.1843 -2.8935 -10.5206 30.6795 0.8265 -25.5047 -30.7310 -3.1119 -10.8740 31.8563 0.7022 -0.4325 3.6691 0.3465 -0.7668 3.8718 -0.0260 -0.4562 1.9142 -0.8028 6.7418 -5.2925 -6.9057 7.9244 -10.0827 -2.0493 3.8058 -2.0282 -0.0000 0.0000 0.0000 -90.7319 -20.7957 49.8929 11.9082 -19.6669 -2.0713 -0.0000 -0.0000 9.1493 0.6961 43.5325 0.4795 -7.1250 0.0000 -0.0000 -50.0811 66.9709 -29.3927 -0.0000 0.0000 0.0000 80.7367 19.6068 33.2694 -7.7881 13.2088 -0.9031 0.0000 -0.0000 -29.0258 -30.4225 28.8830 -15.8356 7.1250 -0.0000 -0.0000 0.1675 2.6281 0.1750
21.2833 16.5390 -7.6843 -179.5590 -7.6027 -169.6310 0.0000 0.0000 0.0000 -27.4100 -11.8730 -14.7636 1.6497 8.0947 23.0021 -0.0187 13.4996 -18.9645 0.2593 3.2759 9.0480 0.0000 0.0000 0.0000 15.0804 16.7998 -27.5420 -2.5734 -9.9702 28.8803 1.1660 -26.6837 -30.3995 -2.7963 -10.3578 30.1434 0.8072 -0.4965 3.4385 0.5493 -0.8515 3.8664 0.1220 -0.4968 2.0389 -0.8401 6.9110 -5.0802 -7.0438 8.1025 -10.4424 -2.1081 3.9017 -2.1740 0.0000 -0.0000 0.0000 -90.8765 -20.6659 49.4946 11.8859 -19.6332 -2.0638 -0.0000 -0.0000 9.9698 -0.1937 42.8974 -0.1319 -7.1250 0.0000 -0.0000 -49.7635 66.2922 -28.4432 0.0000 -0.0000 0.0000 80.3213 19.6998 33.2137 -7.7887 13.2097 -0.9032 0.0000 -0.0000 -29.2155 -30.2606 28.2893 -15.4562 7.1250 -0.0000 -0.0000 0.1516 1.9475 0.1567
21.2803 16.5444 -7.7787 -179.8830 -8.5825 -169.4200 0.0000 0.0000 0.0000 -27.7120 -11.9756 -14.1689 1.5504 7.8591 22.2871 -0.0333 13.1738 -18.3180 0.2029 2.9004 8.0015 0.0000 0.0000 0.0000 13.6937 19.3201 -26.8915 -2.3240 -9.5106 27.4059 1.1669 -26.8154 -30.6338 -2.7436 -10.2680 29.8489 0.7537 -0.5533 3.2373 0.6775 -0.9251 3.8254 0.2822 -0.5335 2.1118 -0.7376 7.1009 -5.1450 -7.1735 8.3599 -10.3803 -2.1603 4.0290 -2.1239 -0.0000 0.0000 0.0000 -90.9314 -20.4819 49.4334 11.8695 -19.6087 -2.0583 -0.0000 -0.0000 9.9303 1.0106 42.0679 0.6772 -7.1250 0.0000 -0.0000 -47.2385 66.1043 -26.5243 -0.0000 0.0000 0.0000 80.0924 19.7357 32.6007 -7.7757 13.1886 -0.9003 0.0000 -0.0000 -28.7763 -30.0824 28.4853 -15.4441 7.1250 -0.0000 -0.0000 0.2905 2.1113 0.3010
21.2770 16.5428 -7.8746 -180.4200 -9.5664 -169.3490 0.0000 0.0000 0.0000 -28.2441 -12.0310 -13.4478 1.4813 7.6898 21.7759 0.0206 12.4993 -18.0399 0.1911 2.8153 7.7649 0.0000 0.0000 0.0000 12.1570 21.5904 -26.0701 -2.1293 -9.1303 26.2037 1.0524 -26.3741 -30.6501 -2.7174 -10.2229 29.7016 0.5505 -0.5820 3.2908 0.7403 -0.9604 3.7607 0.4622 -0.5548 2.0192 -0.7663 7.2338 -5.4350 -7.1077 8.6037 -9.9464 -2.1042 4.1485 -1.9269 0.0000 0.0000 0.0000 -90.8478 -20.1155 50.1404 11.9984 -19.8023 -2.1018 -0.0000 -0.0000 9.1829 1.5794 42.5004 1.0672 -7.1250 0.0000 -0.0000 -47.4421 66.5652 -27.1371 0.0000 0.0000 0.0000 79.8150 19.5704 32.1365 -7.7913 13.2140 -0.9038 0.0000 -0.0000 -28.6172 -29.8591 28.9969 -15.5514 7.1250 -0.0000 -0.0000 0.5131 2.6007 0.5359
21.2780 16.5379 -7.9740 -180.6820 -10.2578 -169.3550 0.0000 0.0000 0.0000 -28.4688 -11.7672 -12.9040 1.4457 7.6010 21.5085 0.1398 11.5707 -18.2826 0.2355 3.1229 8.6212 0.0000 0.0000 0.0000 11.0162 23.9778 -25.2157 -1.9857 -8.8362 25.2843 1.2374 -26.5602 -29.6449 -2.2873 -9.4404 27.1829 0.5261 -0.4342 3.2694 0.8887 -0.7672 3.7710 0.6250 -0.4613 2.0434 -0.7790 7.2695 -5.5309 -7.1866 8.6684 -9.7898 -2.1169 4.1817 -1.8543 0.0000 -0.0000 0.0000 -90.8254 -19.9101 51.0183 12.0628 -19.8988 -2.1236 -0.0000 -0.0000 8.5927 0.4039 42.8925 0.2749 -7.1250 0.0000 -0.0000 -49.2088 66.4692 -28.2484 0.0000 -0.0000 0.0000 79.3697 19.4189 31.7517 -7.8377 13.2894 -0.9145 0.0000 -0.0000 -28.8787 -29.6937 28.9697 -15.4399 7.1250 -0.0000 -0.0000 0.6035 2.5282 0.6295
21.2828 16.5349 -8.0729 -180.5090 -10.8264 -169.2140 0.0000 0.0000 0.0000 -28.1788 -11.3462 -12.8071 1.4268 7.5532 21.3650 0.2067 10.7937 -18.1365 0.2287 3.0784 8.4970 0.0000 0.0000 0.0000 10.3664 26.2935 -24.7723 -1.8986 -8.6516 24.7115 1.6055 -27.0818 -27.7746 -1.7276 -8.2740 23.5495 0.8001 -0.2329 2.9086 1.1852 -0.5099 3.8349 0.7692 -0.3318 2.3106 -0.7005 7.2519 -5.4366 -7.4724 8.5771 -10.1259 -2.2387 4.1355 -1.9679 0.0000 0.0000 0.0000 -90.9840 -20.0584 51.4121 11.9350 -19.7071 -2.0803 -0.0000 -0.0000 8.1752 -0.0794 42.2981 -0.0534 -7.1250 0.0000 -0.0000 -48.6352 65.9343 -27.2876 0.0000 0.0000 0.0000 78.9861 19.5776 31.0985 -7.7940 13.2184 -0.9044 0.0000 -0.0000 -28.6258 -29.8293 28.7302 -15.4092 7.1250 -0.0000 -0.0000 0.4816 2.3075 0.5006
21.2799 16.5368 -8.1734 -180.4310 -11.7103 -169.0030 0.0000 0.0000 0.0000 -27.9473 -11.2050 -12.7428 1.4177 7.5300 21.2954 0.2272 10.1144 -17.5880 0.1277 2.3032 6.3444 0.0000 0.0000 0.0000 9.8257 27.7635 -24.6039 -1.8604 -8.5690 24.4560 1.7913 -27.1233 -26.2208 -1.3932 -7.4675 21.1079 1.1159 -0.1969 2.5572 1.4558 -0.4700 3.8177 0.8676 -0.3074 2.4904 -0.6467 7.2893 -5.2027 -7.6424 8.5641 -10.5338 -2.3284 4.1337 -2.1337 -0.0000 0.0000 0.0000 -91.0967 -19.9981 51.2931 11.9173 -19.6805 -2.0744 -0.0000 -0.0000 8.1905 0.6955 42.0448 0.4658 -7.1250 0.0000 -0.0000 -47.4940 65.9952 -26.5825 -0.0000 0.0000 0.0000 78.7333 19.7649 30.2315 -7.6497 12.9834 -0.8717 0.0000 -0.0000 -27.8376 -30.1083 29.2103 -15.8009 7.1250 -0.0000 -0.0000 0.4093 2.8949 0.4295
21.2717 16.5270 -8.2743 -180.7630 -12.7193 -168.9170 0.0000 0.0000 0.0000 -28.2022 -11.1039 -12.4137 1.4223 7.5418 21.3307 0.2242 9.6979 -17.0704 0.0119 0.7046 1.9362 0.0000 0.0000 0.0000 9.1802 28.5072 -24.3726 -1.8680 -8.5856 24.5075 1.7810 -26.6320 -25.1374 -1.2984 -7.2191 20.3662 1.2000 -0.2073 2.4733 1.5635 -0.4866 3.8083 0.9306 -0.3149 2.5286 -0.6026 7.3479 -5.0178 -7.6717 8.6158 -10.7814 -2.3630 4.1647 -2.2428 -0.0000 0.0000 0.0000 -91.0433 -19.7110 51.5299 12.0532 -19.8844 -2.1204 -0.0000 -0.0000 8.1221 1.0607 42.7201 0.7196 -7.1250 0.0000 -0.0000 -48.3041 66.5546 -27.7151 -0.0000 0.0000 0.0000 78.6035 20.1222 28.4452 -7.2267 12.2917 -0.7792 0.0000 -0.0000 -26.3327 -30.0395 29.7674 -16.0188 7.1250 -0.0000 -0.0000 0.5534 3.4714 0.5860
